<svg id="Layer_1" data-name="Layer 1" xmlns="http://www.w3.org/2000/svg" xmlns:xlink="http://www.w3.org/1999/xlink" viewBox="0 0 1772.61 1114.65"><defs><style>.cls-1,.cls-35,.cls-4{fill:none;}.cls-2{fill:url(#Degradado_sin_nombre_8);}.cls-3{clip-path:url(#clip-path);}.cls-4{stroke:#f6f6f6;stroke-miterlimit:10;stroke-width:0.5px;}.cls-5{fill:url(#Degradado_sin_nombre_26);}.cls-6{fill:url(#linear-gradient);}.cls-7{fill:url(#linear-gradient-2);}.cls-8{fill:url(#Degradado_sin_nombre_26-2);}.cls-9{fill:url(#linear-gradient-3);}.cls-10{fill:url(#linear-gradient-4);}.cls-11{fill:url(#Degradado_sin_nombre_26-3);}.cls-12{fill:url(#linear-gradient-5);}.cls-13{fill:url(#linear-gradient-6);}.cls-14{fill:url(#Degradado_sin_nombre_26-4);}.cls-15{fill:url(#linear-gradient-7);}.cls-16{fill:url(#linear-gradient-8);}.cls-17{fill:url(#Degradado_sin_nombre_26-5);}.cls-18{fill:url(#linear-gradient-9);}.cls-19{fill:url(#linear-gradient-10);}.cls-20{fill:url(#linear-gradient-11);}.cls-21{fill:url(#linear-gradient-12);}.cls-22{fill:url(#Degradado_sin_nombre_26-6);}.cls-23{fill:url(#linear-gradient-13);}.cls-24{fill:url(#Degradado_sin_nombre_28);}.cls-25{fill:url(#Degradado_sin_nombre_26-7);}.cls-26{fill:url(#linear-gradient-14);}.cls-27{fill:url(#linear-gradient-15);}.cls-28{fill:url(#Degradado_sin_nombre_26-8);}.cls-29{fill:url(#linear-gradient-16);}.cls-30{fill:url(#linear-gradient-17);}.cls-31{fill:url(#Degradado_sin_nombre_26-9);}.cls-32{fill:url(#linear-gradient-18);}.cls-33{fill:url(#linear-gradient-19);}.cls-34{fill:url(#Degradado_sin_nombre_26-10);}.cls-35{stroke:#707071;}</style><linearGradient id="Degradado_sin_nombre_8" x1="313.08" y1="-61.87" x2="1483.08" y2="1108.13" gradientUnits="userSpaceOnUse"><stop offset="0.07" stop-color="#a0459a"/><stop offset="1" stop-color="#47429a"/></linearGradient><clipPath id="clip-path" transform="translate(178.08 73.13)"><rect class="cls-1" width="1440" height="900"/></clipPath><linearGradient id="Degradado_sin_nombre_26" x1="398.45" y1="1043.26" x2="308.17" y2="900.42" gradientTransform="translate(549.35 -202.2) rotate(32.3)" gradientUnits="userSpaceOnUse"><stop offset="0.22" stop-color="#fed6a8"/><stop offset="0.36" stop-color="#fed9af"/><stop offset="0.56" stop-color="#fee2c1"/><stop offset="0.8" stop-color="#fff0df"/><stop offset="1" stop-color="#fff"/></linearGradient><linearGradient id="linear-gradient" x1="391.15" y1="1022.05" x2="480.58" y2="1111.48" gradientTransform="translate(549.35 -202.2) rotate(32.3)" gradientUnits="userSpaceOnUse"><stop offset="0" stop-color="#f89c4a"/><stop offset="1" stop-color="#f05365"/></linearGradient><linearGradient id="linear-gradient-2" x1="493.14" y1="1003.04" x2="448.26" y2="880.54" gradientTransform="translate(549.35 -202.2) rotate(32.3)" gradientUnits="userSpaceOnUse"><stop offset="0.08" stop-color="#f489a1"/><stop offset="1" stop-color="#fdc486"/></linearGradient><linearGradient id="Degradado_sin_nombre_26-2" x1="744.77" y1="85.45" x2="654.49" y2="-57.39" xlink:href="#Degradado_sin_nombre_26"/><linearGradient id="linear-gradient-3" x1="737.47" y1="64.24" x2="826.9" y2="153.67" xlink:href="#linear-gradient"/><linearGradient id="linear-gradient-4" x1="839.46" y1="45.23" x2="794.58" y2="-77.28" xlink:href="#linear-gradient-2"/><linearGradient id="Degradado_sin_nombre_26-3" x1="483.09" y1="838.7" x2="297.76" y2="785.64" gradientTransform="translate(1270.55 -208.96) rotate(94.21)" xlink:href="#Degradado_sin_nombre_26"/><linearGradient id="linear-gradient-5" x1="400.42" y1="894.49" x2="575.18" y2="939.64" gradientTransform="translate(1270.55 -208.96) rotate(94.21)" xlink:href="#linear-gradient"/><linearGradient id="linear-gradient-6" x1="587.21" y1="806.11" x2="440.84" y2="767.08" gradientTransform="translate(1270.55 -208.96) rotate(94.21)" xlink:href="#linear-gradient-2"/><linearGradient id="Degradado_sin_nombre_26-4" x1="638.53" y1="266.64" x2="638.53" y2="169.07" gradientTransform="matrix(1, 0, 0, 1, 0, 0)" xlink:href="#Degradado_sin_nombre_26"/><linearGradient id="linear-gradient-7" x1="647.12" y1="261.39" x2="692.14" y2="306.4" gradientTransform="matrix(1, 0, 0, 1, 0, 0)" xlink:href="#linear-gradient-2"/><linearGradient id="linear-gradient-8" x1="563.16" y1="236.67" x2="647.78" y2="321.29" gradientTransform="matrix(1, 0, 0, 1, 0, 0)" xlink:href="#linear-gradient"/><linearGradient id="Degradado_sin_nombre_26-5" x1="1237.37" y1="842.95" x2="1237.37" y2="759.01" gradientTransform="matrix(1, 0, 0, 1, 0, 0)" xlink:href="#Degradado_sin_nombre_26"/><linearGradient id="linear-gradient-9" x1="1244.76" y1="838.42" x2="1283.48" y2="877.14" gradientTransform="matrix(1, 0, 0, 1, 0, 0)" xlink:href="#linear-gradient-2"/><linearGradient id="linear-gradient-10" x1="1172.53" y1="817.16" x2="1245.33" y2="889.95" gradientTransform="matrix(1, 0, 0, 1, 0, 0)" xlink:href="#linear-gradient"/><linearGradient id="linear-gradient-11" x1="144.6" y1="87.39" x2="144.6" y2="-52.01" gradientTransform="matrix(0.97, 0.26, 0.26, -0.97, 112.09, 580.35)" xlink:href="#linear-gradient"/><linearGradient id="linear-gradient-12" x1="210.25" y1="26.64" x2="170.27" y2="177.33" gradientTransform="matrix(0.97, 0.26, 0.26, -0.97, 112.09, 580.35)" xlink:href="#linear-gradient-2"/><linearGradient id="Degradado_sin_nombre_26-6" x1="37.21" y1="31.85" x2="160.04" y2="154.68" gradientTransform="matrix(0.97, 0.26, 0.26, -0.97, 112.09, 580.35)" xlink:href="#Degradado_sin_nombre_26"/><linearGradient id="linear-gradient-13" x1="1518.26" y1="338.17" x2="1518.26" y2="198.78" gradientTransform="matrix(0.97, 0.26, 0.26, -0.97, 112.09, 580.35)" xlink:href="#linear-gradient"/><linearGradient id="Degradado_sin_nombre_28" x1="1583.91" y1="277.42" x2="1543.93" y2="428.11" gradientTransform="matrix(0.97, 0.26, 0.26, -0.97, 112.09, 580.35)" gradientUnits="userSpaceOnUse"><stop offset="0.08" stop-color="#7163ab"/><stop offset="1" stop-color="#9c7cb8"/></linearGradient><linearGradient id="Degradado_sin_nombre_26-7" x1="1410.87" y1="282.64" x2="1533.7" y2="405.46" gradientTransform="matrix(0.97, 0.26, 0.26, -0.97, 112.09, 580.35)" xlink:href="#Degradado_sin_nombre_26"/><linearGradient id="linear-gradient-14" x1="1274.27" y1="455.48" x2="1236.4" y2="544.51" gradientTransform="matrix(0.92, 0.39, 0.39, -0.92, 104.21, 406.91)" xlink:href="#linear-gradient"/><linearGradient id="linear-gradient-15" x1="1310.62" y1="499.97" x2="1266.29" y2="604.18" gradientTransform="matrix(0.92, 0.39, 0.39, -0.92, 104.21, 406.91)" xlink:href="#linear-gradient-2"/><linearGradient id="Degradado_sin_nombre_26-8" x1="1239.09" y1="511.27" x2="1209.8" y2="580.15" gradientTransform="matrix(0.92, 0.39, 0.39, -0.92, 104.21, 406.91)" xlink:href="#Degradado_sin_nombre_26"/><linearGradient id="linear-gradient-16" x1="752.61" y1="-221.18" x2="714.74" y2="-132.15" gradientTransform="matrix(0.92, 0.39, 0.39, -0.92, 104.21, 406.91)" xlink:href="#linear-gradient"/><linearGradient id="linear-gradient-17" x1="788.95" y1="-176.7" x2="744.63" y2="-72.49" gradientTransform="matrix(0.92, 0.39, 0.39, -0.92, 104.21, 406.91)" xlink:href="#linear-gradient-2"/><linearGradient id="Degradado_sin_nombre_26-9" x1="717.43" y1="-165.39" x2="688.13" y2="-96.52" gradientTransform="matrix(0.92, 0.39, 0.39, -0.92, 104.21, 406.91)" xlink:href="#Degradado_sin_nombre_26"/><linearGradient id="linear-gradient-18" x1="1283.48" y1="589.92" x2="1366.46" y2="672.9" gradientTransform="matrix(1, 0, 0, 1, 0, 0)" xlink:href="#linear-gradient"/><linearGradient id="linear-gradient-19" x1="1352.19" y1="662.82" x2="1435.91" y2="746.54" gradientTransform="matrix(1, 0, 0, 1, 0, 0)" xlink:href="#linear-gradient-2"/><linearGradient id="Degradado_sin_nombre_26-10" x1="1427.1" y1="661.41" x2="1427.1" y2="513.12" gradientTransform="matrix(1, 0, 0, 1, 0, 0)" xlink:href="#Degradado_sin_nombre_26"/></defs><rect class="cls-2" x="178.08" y="73.13" width="1440" height="900"/><g class="cls-3"><polygon class="cls-4" points="1379.71 983.36 1293.92 897.28 1197.24 952.63 1282 1038.34 1379.71 983.36"/><polygon class="cls-4" points="1293.92 897.28 1325.42 827.45 1410.7 915.32 1379.71 983.36 1293.92 897.28"/><polygon class="cls-4" points="1197.24 952.63 1228.28 885.18 1325.42 827.45 1293.92 897.28 1197.24 952.63"/><polygon class="cls-4" points="895.15 193.69 809.37 107.61 712.68 162.96 797.44 248.66 895.15 193.69"/><polygon class="cls-4" points="809.37 107.61 840.86 37.78 926.14 125.64 895.15 193.69 809.37 107.61"/><polygon class="cls-4" points="712.68 162.96 743.73 95.51 840.86 37.78 809.37 107.61 712.68 162.96"/><polygon class="cls-4" points="336.05 378.94 285.7 311.19 212.72 340.54 262.4 407.94 336.05 378.94"/><polygon class="cls-4" points="285.7 311.19 314.98 265.69 364.79 334.63 336.05 378.94 285.7 311.19"/><polygon class="cls-4" points="212.72 340.54 241.44 296.65 314.98 265.69 285.7 311.19 212.72 340.54"/><polygon class="cls-4" points="1287.32 82.47 1390.2 0.47 1430.45 105.3 1324.1 187.3 1287.32 82.47"/><polygon class="cls-4" points="1324.1 187.3 1426.85 230.87 1530.1 148.75 1430.45 105.3 1324.1 187.3"/><polygon class="cls-4" points="1390.2 0.47 1492.08 44.96 1530.1 148.75 1430.45 105.3 1390.2 0.47"/><polygon class="cls-4" points="0.29 692.25 103.17 610.24 143.43 715.08 37.07 797.08 0.29 692.25"/><polygon class="cls-4" points="37.07 797.08 139.82 840.64 243.07 758.52 143.43 715.08 37.07 797.08"/><polygon class="cls-4" points="103.17 610.24 205.05 654.74 243.07 758.52 143.43 715.08 103.17 610.24"/><polygon class="cls-5" points="269.43 771.66 420.43 751.57 391.39 874.43 237.07 892.55 269.43 771.66"/><polygon class="cls-6" points="237.07 892.55 307.13 992.27 458.56 972.28 391.39 874.43 237.07 892.55"/><polygon class="cls-7" points="420.43 751.57 489.06 851.68 458.56 972.28 391.39 874.43 420.43 751.57"/><polygon class="cls-8" points="1073.93 147.06 1224.93 126.97 1195.89 249.83 1041.57 267.95 1073.93 147.06"/><polygon class="cls-9" points="1041.57 267.95 1111.63 367.67 1263.06 347.68 1195.89 249.83 1041.57 267.95"/><polygon class="cls-10" points="1224.93 126.97 1293.56 227.08 1263.06 347.68 1195.89 249.83 1224.93 126.97"/><polygon class="cls-11" points="450.87 46.84 552.97 177.81 406.28 216.18 304.5 81.03 450.87 46.84"/><polygon class="cls-12" points="304.5 81.03 235.45 200.04 337.68 331.47 406.28 216.18 304.5 81.03"/><polygon class="cls-13" points="552.97 177.81 482.73 295.69 337.68 331.47 406.28 216.18 552.97 177.81"/><polygon class="cls-4" points="1478.06 283.74 1629.06 263.64 1600.02 386.5 1445.7 404.63 1478.06 283.74"/><polygon class="cls-4" points="1445.7 404.63 1515.76 504.35 1667.19 484.35 1600.02 386.5 1445.7 404.63"/><polygon class="cls-4" points="1629.06 263.64 1697.69 363.76 1667.19 484.35 1600.02 386.5 1629.06 263.64"/><polygon class="cls-4" points="582.22 893.77 733.22 873.67 704.17 996.53 549.86 1014.66 582.22 893.77"/><polygon class="cls-4" points="549.86 1014.66 619.92 1114.38 771.35 1094.38 704.17 996.53 549.86 1014.66"/><polygon class="cls-4" points="733.22 873.67 801.85 973.79 771.35 1094.38 704.17 996.53 733.22 873.67"/><polygon class="cls-4" points="599.92 702.58 525.3 746.44 470.4 692.65 544.26 648.87 599.92 702.58"/><polygon class="cls-4" points="525.3 746.44 533.25 799.05 607.87 753.9 599.92 702.58 525.3 746.44"/><polygon class="cls-4" points="470.4 692.65 478.51 743.58 533.25 799.05 525.3 746.44 470.4 692.65"/><polygon class="cls-14" points="703.29 235.98 628.67 279.84 573.77 226.05 647.63 182.27 703.29 235.98"/><polygon class="cls-15" points="628.67 279.84 636.62 332.45 711.24 287.3 703.29 235.98 628.67 279.84"/><polygon class="cls-16" points="573.77 226.05 581.88 276.98 636.62 332.45 628.67 279.84 573.77 226.05"/><polygon class="cls-17" points="1293.07 816.57 1228.88 854.3 1181.66 808.03 1245.19 770.37 1293.07 816.57"/><polygon class="cls-18" points="1228.88 854.3 1235.72 899.55 1299.91 860.71 1293.07 816.57 1228.88 854.3"/><polygon class="cls-19" points="1181.66 808.03 1188.63 851.83 1235.72 899.55 1228.88 854.3 1181.66 808.03"/><polygon class="cls-20" points="349.54 608.51 263.75 522.43 167.07 577.78 251.83 663.49 349.54 608.51"/><polygon class="cls-21" points="263.75 522.43 295.25 452.61 380.53 540.47 349.54 608.51 263.75 522.43"/><polygon class="cls-22" points="167.07 577.78 198.11 510.33 295.25 452.61 263.75 522.43 167.07 577.78"/><polygon class="cls-23" points="1741.62 718.31 1655.83 632.23 1559.14 687.58 1643.9 773.29 1741.62 718.31"/><polygon class="cls-24" points="1655.83 632.23 1687.33 562.4 1772.61 650.27 1741.62 718.31 1655.83 632.23"/><polygon class="cls-25" points="1559.14 687.58 1590.19 620.13 1687.33 562.4 1655.83 632.23 1559.14 687.58"/><polygon class="cls-26" points="1516.73 459.82 1466.38 392.07 1393.41 421.42 1443.09 488.81 1516.73 459.82"/><polygon class="cls-27" points="1466.38 392.07 1495.66 346.57 1545.47 415.51 1516.73 459.82 1466.38 392.07"/><polygon class="cls-28" points="1393.41 421.42 1422.12 377.54 1495.66 346.57 1466.38 392.07 1393.41 421.42"/><polygon class="cls-29" points="771.85 878.3 721.5 810.55 648.52 839.91 698.2 907.3 771.85 878.3"/><polygon class="cls-30" points="721.5 810.55 750.78 765.06 800.59 834 771.85 878.3 721.5 810.55"/><polygon class="cls-31" points="648.52 839.91 677.24 796.02 750.78 765.06 721.5 810.55 648.52 839.91"/><polygon class="cls-4" points="1592.76 875.16 1542.41 807.41 1469.44 836.76 1519.12 904.16 1592.76 875.16"/><polygon class="cls-4" points="1542.41 807.41 1571.69 761.91 1621.51 830.85 1592.76 875.16 1542.41 807.41"/><polygon class="cls-4" points="1469.44 836.76 1498.16 792.88 1571.69 761.91 1542.41 807.41 1469.44 836.76"/><polygon class="cls-32" points="1254.27 619.13 1357.15 537.12 1397.4 641.96 1291.05 723.96 1254.27 619.13"/><polygon class="cls-33" points="1291.05 723.96 1393.8 767.52 1497.05 685.4 1397.4 641.96 1291.05 723.96"/><polygon class="cls-34" points="1357.15 537.12 1459.03 581.62 1497.05 685.4 1397.4 641.96 1357.15 537.12"/></g><text x="178.08" y="73.13"/><g id="Rectangle_2241" data-name="Rectangle 2241"><rect class="cls-35" x="176.28" y="73.63" width="1439" height="899"/></g></svg>